<svg xmlns="http://www.w3.org/2000/svg" width="256" height="256"><path fill-opacity=".016" d="M0 128.004v128.004l128.25-.254 128.25-.254.254-127.75L257.008 0H0v128.004m.485.496c0 70.4.119 99.053.265 63.672.146-35.38.146-92.98 0-128C.604 29.153.485 58.1.485 128.5" fill="#1976D2" fill-rule="evenodd"/><path fill-opacity=".279" d="M240.923 73.923C238.759 76.087 238 77.795 238 80.5s.759 4.413 2.923 6.577c3.727 3.726 7.833 3.841 12 .334C255.485 85.256 256 84.099 256 80.5c0-3.599-.515-4.756-3.077-6.911-4.167-3.507-8.273-3.392-12 .334M242 75c-2.869 2.869-2.742 9.367.223 11.443 3.527 2.471 8.29 1.991 10.704-1.078 2.75-3.495 2.618-6.911-.382-9.91-3.03-3.031-7.765-3.235-10.545-.455m2 5.5c0 3.025.45 5.5 1 5.5s1-.9 1-2 .42-2 .933-2c.513 0 1.218.9 1.567 2s1.054 2 1.567 2c1.173 0 1.168-1.08-.013-2.946-.562-.89-.53-2.165.085-3.314 1.298-2.426-.538-4.74-3.761-4.74-2.216 0-2.378.376-2.378 5.5m2-2c0 .917.484 1.505 1.075 1.308.591-.197 1.075-.785 1.075-1.308s-.484-1.111-1.075-1.308c-.591-.197-1.075.391-1.075 1.308M29.579 91.103C14.888 96.155 3.88 108.815 1.008 123.96.453 126.882 0 139.562 0 152.136V175h18l.022-24.75c.025-28.3.33-29.678 8.161-36.868 5.959-5.47 10.262-6.774 22.562-6.833 5.635-.027 10.247-.396 10.25-.821.003-.425-1.8-4.362-4.006-8.75L50.978 89l-7.739.033c-5.103.023-9.756.728-13.66 2.07M88.743 114.5L76.005 140h-8.502c-4.677 0-8.503.221-8.503.492C59 141.805 75.574 174 76.25 174c.429 0 6.39-11.267 13.249-25.037l12.469-25.037 12.76 25.544 12.761 25.544 21.201-42.257c11.66-23.241 21.226-42.595 21.255-43.007.03-.412-3.768-.75-8.441-.75h-8.496L140.5 114c-6.879 13.75-12.729 25-13 25-.271 0-6.121-11.25-13-25s-12.623-25-12.763-25c-.14 0-5.987 11.475-12.994 25.5m132.698-24.208c-.272.711-.371 16.011-.218 34.001l.277 32.708-14.884-.001c-8.402 0-16.571-.505-18.758-1.161-4.985-1.493-11.383-6.987-13.913-11.946L171.959 140h-18.176l.671 2.75c3.588 14.699 17.423 28.019 32.345 31.141 3.009.63 15.437 1.109 28.75 1.109H239V89h-8.531c-6.052 0-8.676.376-9.028 1.292m-57.433 17.693c-3.305 6.591-6.008 12.216-6.008 12.5 0 .283 2.925.515 6.5.515h6.5v-12.5c0-6.875-.222-12.5-.492-12.5-.271 0-3.196 5.393-6.5 11.985M44 110.033c0 .569 1.133 3.269 2.517 6L49.034 121h8.483c5.171 0 8.483-.403 8.483-1.033 0-.569-1.133-3.269-2.517-6L60.966 109h-8.483c-5.171 0-8.483.403-8.483 1.033m17.126 15.515c-2.998 2.522-3.126 2.544-3.126.541 0-1.149-.45-2.089-1-2.089-.563 0-1 2.814-1 6.441 0 3.543.45 6.719 1 7.059.574.355 1-.552 1-2.128v-2.746l2.99 2.864c3.78 3.622 5.289 2.455 1.687-1.305-3.317-3.462-3.317-3.908 0-7.37 3.54-3.695 2.421-4.609-1.551-1.267m93.353-1.353c-.913 2.378-.098 12.8 1.021 13.067 1.344.32 1.886-12.276.584-13.578-.691-.691-1.207-.528-1.605.511m3.521.305c0 .825.878 1.5 1.95 1.5 1.661 0 1.995.816 2.25 5.512.165 3.031.75 5.511 1.3 5.511s1.135-2.48 1.3-5.511c.255-4.696.589-5.512 2.25-5.512 1.072 0 1.95-.675 1.95-1.5 0-1.152-1.278-1.5-5.5-1.5-4.222 0-5.5.348-5.5 1.5m12.439-.201c-1.006 2.622.007 13.025 1.311 13.455.847.28 1.25-.763 1.25-3.234 0-3.512.12-3.635 3.25-3.333 2.858.275 3.288.705 3.563 3.563.604 6.257 2.187 3.18 2.187-4.25 0-4.333-.422-7.5-1-7.5-.55 0-1 1.35-1 3 0 2.762-.278 3-3.5 3-3.044 0-3.5-.318-3.5-2.441 0-2.819-1.753-4.366-2.561-2.26m-142.882 1.924c-3.559 5.08-.513 11.11 5.612 11.11 5.663 0 8.65-6.291 5.274-11.11-2.189-3.125-8.697-3.125-10.886 0m15.098-.394c-.91 1.006-1.655 3.186-1.655 4.845 0 4.248 3.073 6.691 8.509 6.766 5.84.079 6.276-1.849.511-2.259-5.2-.37-7.02-1.563-7.02-4.603 0-4.465 4.081-5.882 8.535-2.963 2.739 1.794 3.345.408.894-2.044-2.15-2.149-7.729-2.002-9.774.258m-13.872 2.749c-1.528 3.352-.049 5.808 3.769 6.258 4.579.539 7.05-4.091 3.877-7.265-2.481-2.481-6.286-1.98-7.646 1.007m8.884 51.089c-.367.366-.631 1.829-.588 3.25.043 1.421.306 2.021.583 1.333.278-.687 1.255-1.282 2.171-1.32 1.33-.056 1.263-.244-.333-.93-1.71-.735-1.746-.87-.25-.93.962-.038 1.75-.52 1.75-1.07 0-1.125-2.311-1.356-3.333-.333m23 0c-.367.366-.667 1.734-.667 3.039 0 1.977.232 2.158 1.389 1.083 1.007-.934 1.076-1.491.25-2.024-.718-.463-.47-.74.67-.75.995-.008 1.531-.465 1.191-1.015-.714-1.155-1.875-1.291-2.833-.333m23.955 2.083c.362 1.512.821 2.938 1.019 3.167.562.651 1.023-.19 1.737-3.167.556-2.316.339-2.75-1.378-2.75-1.717 0-1.934.434-1.378 2.75m46.045-2.083c-1.218 1.218-.689 3.333.833 3.333.825 0 1.5.525 1.5 1.167 0 .641.337.83.748.418.412-.412-.124-1.387-1.191-2.167-1.748-1.278-1.767-1.418-.189-1.418.962 0 1.472-.45 1.132-1-.714-1.155-1.875-1.291-2.833-.333m20.294.88c-.698.841-.861 2.152-.397 3.19.688 1.54.839 1.469 1.192-.563.262-1.516.898-2.137 1.824-1.782.781.3 1.42.157 1.42-.316 0-1.597-2.844-1.969-4.039-.529m33.289-.829c-1.421.51-1.731 5.282-.344 5.282.499 0 .682-.859.408-1.909-.341-1.301.087-2.025 1.343-2.273 1.014-.201 1.393-.631.843-.957-.55-.325-1.562-.389-2.25-.143m11.417-.051c-.367.366-.667 1.72-.667 3.008 0 2.09.215 2.208 1.996 1.095 1.843-1.151 1.863-1.299.25-1.938-1.659-.657-1.659-.695.004-.762.963-.038 1.75-.52 1.75-1.07 0-1.125-2.311-1.356-3.333-.333m24.294.88c-.698.841-.861 2.152-.397 3.19.688 1.54.839 1.469 1.192-.563.262-1.516.898-2.137 1.824-1.782.781.3 1.42.157 1.42-.316 0-1.597-2.844-1.969-4.039-.529M4.417 181.5c-.399 1.1-.908 2.338-1.13 2.75-.223.412.747.75 2.154.75 2.915 0 3.166-.792 1.13-3.559-1.41-1.917-1.437-1.916-2.154.059m10.583 1c0 1.375.402 2.5.893 2.5 1.166 0 2.274-2.921 1.551-4.09-1.089-1.763-2.444-.881-2.444 1.59m3.769-.544c-.691 2.461-.278 3.886.812 2.797.319-.32.423-1.632.229-2.917l-.351-2.336-.69 2.456m29.803.044c.836 3.092 1.056 3.348 2.241 2.616 1.306-.807 2.208-4.616 1.093-4.616-.498 0-.906.761-.906 1.691 0 1.481-.193 1.45-1.552-.25-1.491-1.865-1.525-1.843-.876.559m22.428.5c0 1.375.402 2.5.893 2.5 1.166 0 2.274-2.921 1.551-4.09-1.089-1.763-2.444-.881-2.444 1.59m3.769-.544c-.691 2.461-.278 3.886.812 2.797.319-.32.423-1.632.229-2.917l-.351-2.336-.69 2.456m29.231.362c0 1.909.529 2.318 3 2.318s3-.409 3-2.318c0-2.664-1.984-3.219-2.032-.568-.03 1.667-.095 1.667-1.36 0-1.803-2.375-2.608-2.199-2.608.568m14.195.182c.02 1.65.244 2.204.498 1.231.254-.973.237-2.323-.037-3-.274-.677-.481.119-.461 1.769m3 0c.02 1.65.244 2.204.498 1.231.254-.973.237-2.323-.037-3-.274-.677-.481.119-.461 1.769m19.805 0c0 1.375.45 2.5 1 2.5s1-1.125 1-2.5-.45-2.5-1-2.5-1 1.125-1 2.5m31.05-.594c-1.488 2.78-1.35 3.094 1.356 3.094 1.921 0 2.3-.407 1.88-2.016-.761-2.91-2.029-3.333-3.236-1.078m35.02.844c.063 2.437.168 2.522.93.75 1.174-2.731 1.174-3.5 0-3.5-.55 0-.968 1.238-.93 2.75m3.93-1.191c0 .904-.475 1.266-1.13.861-.673-.416-.951-.163-.687.628.836 2.509 2.817 2.182 2.817-.465 0-1.421-.225-2.583-.5-2.583s-.5.702-.5 1.559m21.323 1.25c.991 2.175 1.147 2.222 1.81.536 1.084-2.754 1.028-2.916-1.014-2.916-1.618 0-1.729.332-.796 2.38m-46.717.607c.335.871 1.047 1.584 1.584 1.584 1.315 0 .492-2.273-1.003-2.771-.731-.244-.954.214-.581 1.187" fill="#1976D2" fill-rule="evenodd"/><path fill-opacity=".199" d="M243.11 72.355c-4.41 2.519-6.33 8.496-4.08 12.7 1.568 2.931 6.647 5.175 10.031 4.432 3.814-.838 6.939-4.921 6.939-9.066 0-6.489-7.469-11.163-12.89-8.066m2.16.43c-2.802.438-6.27 4.749-6.27 7.794 0 1.27 1.054 3.535 2.342 5.032 6.566 7.633 17.91-1.935 11.682-9.853-2.133-2.712-4.245-3.521-7.754-2.973m-.603 2.882c-1.065 1.065-.77 9.333.333 9.333.55 0 1.002-1.013 1.005-2.25.005-2.131.135-2.091 2.464.75 1.352 1.65 2.475 2.464 2.495 1.809.02-.655-.44-1.485-1.023-1.845-.621-.384-.783-1.905-.393-3.684.454-2.064.233-3.304-.691-3.89-1.639-1.038-3.288-1.126-4.19-.223M246 78.583c0 1.766 2.153 1.459 2.771-.395.218-.654-.317-1.188-1.188-1.188-.87 0-1.583.713-1.583 1.583M35.594 90.035C22.179 92.342 8.981 103.166 3.7 116.191c-1.955 4.824-2.2 7.712-2.676 31.597L.5 174.076l8-.288 8-.288.5-24c.469-22.533.642-24.288 2.818-28.706 2.666-5.413 7.767-10.247 13.617-12.904 3.135-1.424 6.534-1.851 14.859-1.868L59.088 106l-4.294-8.25L50.5 89.5l-5-.154c-2.75-.085-7.208.225-9.906.689m104.841 24.497l-12.908 25.532-12.504-25.032C108.145 101.265 102.282 90 101.993 90c-.289 0-6.136 11.25-12.993 25l-12.468 25H58.989l8.631 17.24 8.632 17.241 12.749-25.483 12.749-25.482 12.629 25.242C121.325 162.641 127.23 174 127.502 174 127.99 174 170 90.477 170 89.505c0-.278-3.748-.505-8.329-.505h-8.329l-12.907 25.532M222 123.586v34.586l-16.25-.336c-16.001-.331-16.334-.383-21.75-3.41-3.8-2.124-6.567-4.674-8.953-8.25L171.595 141h-8.298c-9.818 0-9.983.306-5.276 9.726 4.043 8.091 11.423 15.382 19.691 19.455l6.737 3.319 27.276.309 27.275.309V89h-17v34.586m-57.772-15.074c-2.875 5.782-5.228 10.69-5.228 10.907 0 .218 2.476.55 5.501.738l5.502.343-.002-11.25c0-6.187-.123-11.25-.273-11.25-.15 0-2.625 4.73-5.5 10.512m-120.23 1.216c.001.125 1.221 2.713 2.71 5.75L49.417 121h8.291c4.561 0 8.292-.24 8.292-.533 0-.294-1.116-2.735-2.479-5.426l-2.48-4.893-8.523-.324c-4.687-.178-8.522-.221-8.52-.096M30 125.059c0 .582.45.781 1 .441s1-.816 1-1.059-.45-.441-1-.441-1 .477-1 1.059m5.5.941c.995 1.1 2.259 2 2.808 2 .549 0-.04-.9-1.308-2s-2.532-2-2.808-2c-.276 0 .313.9 1.308 2m9.5-.941c0 .582.45.781 1 .441s1-.816 1-1.059-.45-.441-1-.441-1 .477-1 1.059m3.5-.059c.34.55.816 1 1.059 1s.441-.45.441-1-.477-1-1.059-1-.781.45-.441 1m8.786 5c-.007 3.575.181 5.488.419 4.252.379-1.965.708-2.104 2.614-1.105 2.104 1.104 2.12 1.075.451-.808-1.639-1.85-1.639-2.046 0-3.762 1.652-1.729 1.632-1.76-.454-.694-1.958 1.001-2.226.833-2.6-1.633-.229-1.513-.422.175-.43 3.75m98.042.5c.005 3.85.185 5.302.402 3.228.216-2.075.213-5.225-.008-7-.221-1.776-.398-.078-.394 3.772m4.672-5.61c2.219.613 2.562 1.359 3.053 6.65l.553 5.96.447-5.959c.4-5.332.71-6.032 2.947-6.65 1.649-.456.458-.692-3.5-.692-3.953 0-5.147.236-3.5.691m11 5.61c0 3.667.436 6.5 1 6.5.55 0 1-1.35 1-3 0-2.762.278-3 3.5-3s3.5.238 3.5 3c0 1.65.45 3 1 3 .564 0 1-2.833 1-6.5s-.436-6.5-1-6.5c-.55 0-1 1.125-1 2.5 0 2.19-.433 2.5-3.5 2.5s-3.5-.31-3.5-2.5c0-1.375-.45-2.5-1-2.5-.564 0-1 2.833-1 6.5m-120-4.607c0 .491.739 1.176 1.641 1.523 1.373.527 1.435.38.378-.893-1.44-1.735-2.019-1.916-2.019-.63M41 130.5c0 1.375.337 2.5.75 2.5s.75-1.125.75-2.5-.337-2.5-.75-2.5-.75 1.125-.75 2.5m-15-.059c0 .793.45 1.719 1 2.059.55.34 1-.309 1-1.441 0-1.132-.45-2.059-1-2.059s-1 .648-1 1.441M35.5 135c-.995 1.1-1.515 2-1.155 2 .36 0 1.555-.9 2.655-2 1.1-1.1 1.62-2 1.155-2-.465 0-1.66.9-2.655 2" fill="#1976D2" fill-rule="evenodd"/><path fill-opacity=".248" d="M241.004 74.496c-1.29 1.373-2.156 2.624-1.925 2.781.232.157 1.63-.966 3.107-2.496 1.478-1.53 2.344-2.781 1.925-2.781-.42 0-1.818 1.123-3.107 2.496m8.079-2.131c.23.2 1.542.9 2.917 1.555 2.357 1.122 2.389 1.102.559-.365-1.593-1.276-4.848-2.391-3.476-1.19m-4.947 8.385c.075 2.612.331 3.737.57 2.5.548-2.849 1.755-2.857 3.737-.027.856 1.222 1.557 1.762 1.557 1.2 0-.563-.489-1.512-1.087-2.11-.783-.783-.783-1.275 0-1.759 1.312-.811 1.46-4.554.181-4.554-.499 0-.671.9-.384 2 .408 1.559.031 2-1.71 2-1.741 0-2.118-.441-1.71-2 .287-1.1.115-2-.384-2-.498 0-.845 2.138-.77 4.75m10.864.027c0 1.528-.711 3.891-1.58 5.25l-1.58 2.473 2.08-2.361c1.805-2.048 2.987-8.139 1.58-8.139-.275 0-.5 1.25-.5 2.777m-16.921-.194c.048 1.165.285 1.402.604.605.289-.722.253-1.585-.079-1.917-.332-.332-.568.258-.525 1.312m1.542 4.871c.585 1.525 4.236 4.076 4.833 3.377.155-.182-1.007-1.377-2.583-2.654-2.023-1.641-2.684-1.853-2.25-.723m-98.637 28.628c-6.866 13.795-12.81 25.289-13.209 25.543-.398.254-6.42-10.92-13.382-24.832L101.735 89.5 89.027 115 76.32 140.5l-8.068.5-8.068.5 7.658 15.722c4.212 8.647 7.887 15.734 8.167 15.75.28.015 6.185-11.334 13.122-25.221l12.613-25.248 12.882 25.75 12.883 25.75 21.244-42.501L169.997 89h-16.529l-12.484 25.082M46.788 115l2.682 5h7.765c4.271 0 7.765-.213 7.765-.473 0-.261-.99-2.511-2.199-5l-2.2-4.527H44.106l2.682 5m108.54 15.5c.005 3.85.185 5.302.402 3.228.216-2.075.213-5.225-.008-7-.221-1.776-.398-.078-.394 3.772m4.876-5.788c2.555.389 2.723.751 3.057 6.6l.354 6.188.192-6.184c.185-5.92.31-6.201 2.943-6.6 1.512-.229.05-.416-3.25-.416s-4.783.185-3.296.412m11.074 5.788c.023 3.85.224 5.537.445 3.75.377-3.038.657-3.25 4.277-3.25s3.9.212 4.277 3.25c.221 1.787.422.1.445-3.75.026-4.416-.195-5.893-.6-4-.564 2.636-1.064 3-4.122 3s-3.558-.364-4.122-3c-.405-1.893-.626-.416-.6 4" fill="#1976D2" fill-rule="evenodd"/></svg>